<svg id="visual" viewBox="0 0 900 600" width="900" height="600" xmlns="http://www.w3.org/2000/svg" xmlns:xlink="http://www.w3.org/1999/xlink" version="1.1"><path d="M0 217L82 241L164 217L245 73L327 145L409 145L491 157L573 217L655 181L736 205L818 205L900 229L900 0L818 0L736 0L655 0L573 0L491 0L409 0L327 0L245 0L164 0L82 0L0 0Z" fill="#1854c4"></path><path d="M0 295L82 331L164 271L245 181L327 205L409 259L491 235L573 313L655 265L736 265L818 259L900 277L900 227L818 203L736 203L655 179L573 215L491 155L409 143L327 143L245 71L164 215L82 239L0 215Z" fill="#1750ba"></path><path d="M0 415L82 391L164 355L245 295L327 289L409 385L491 409L573 469L655 343L736 325L818 397L900 421L900 275L818 257L736 263L655 263L573 311L491 233L409 257L327 203L245 179L164 269L82 329L0 293Z" fill="#164cb0"></path><path d="M0 541L82 553L164 559L245 511L327 547L409 511L491 565L573 565L655 565L736 553L818 541L900 523L900 419L818 395L736 323L655 341L573 467L491 407L409 383L327 287L245 293L164 353L82 389L0 413Z" fill="#1548a6"></path><path d="M0 601L82 601L164 601L245 601L327 601L409 601L491 601L573 601L655 601L736 601L818 601L900 601L900 521L818 539L736 551L655 563L573 563L491 563L409 509L327 545L245 509L164 557L82 551L0 539Z" fill="#15449d"></path></svg>